<?xml version="1.0" encoding="utf-8"?>
<!-- Generator: Adobe Illustrator 25.0.1, SVG Export Plug-In . SVG Version: 6.00 Build 0)  -->
<svg version="1.0" id="katman_1" xmlns="http://www.w3.org/2000/svg" xmlns:xlink="http://www.w3.org/1999/xlink" x="0px" y="0px"
	 viewBox="0 0 800 600" style="enable-background:new 0 0 800 600;" xml:space="preserve">
<style type="text/css">
	.st0{fill:#FFE900;}
</style>
<g>
	<path class="st0" d="M657.4,315.7l-521.6,54.8l6.3,59.9l521.6-54.8L657.4,315.7z"/>
	<path d="M388.6,203.4c-11.9,0-23.5,3.5-33.4,10.1c-9.9,6.6-17.6,16-22.2,27c-4.6,11-5.7,23.1-3.4,34.8c2.3,11.7,8.1,22.4,16.5,30.8
		c8.4,8.4,19.1,14.1,30.8,16.5c11.7,2.3,23.8,1.1,34.8-3.4c11-4.6,20.4-12.3,27-22.2c6.6-9.9,10.1-21.5,10.1-33.4
		c0-7.9-1.5-15.7-4.6-23c-3-7.3-7.5-13.9-13-19.5c-5.6-5.6-12.2-10-19.5-13C404.3,204.9,396.5,203.4,388.6,203.4L388.6,203.4z
		 M388.6,297c-6.6,0-13.1-2-18.6-5.6c-5.5-3.7-9.8-8.9-12.3-15c-2.5-6.1-3.2-12.8-1.9-19.3c1.3-6.5,4.5-12.4,9.2-17.1
		c4.7-4.7,10.6-7.9,17.1-9.2c6.5-1.3,13.2-0.6,19.3,1.9c6.1,2.5,11.3,6.8,15,12.3c3.7,5.5,5.6,12,5.6,18.6c0,8.9-3.5,17.4-9.8,23.6
		C406,293.5,397.5,297,388.6,297L388.6,297z"/>
	<path d="M582.3,203.4c-11.9,0-23.5,3.5-33.4,10.1c-9.9,6.6-17.6,16-22.2,27c-4.6,11-5.7,23.1-3.4,34.8c2.3,11.7,8.1,22.4,16.5,30.8
		c8.4,8.4,19.1,14.1,30.8,16.5c11.7,2.3,23.8,1.1,34.8-3.4c11-4.6,20.4-12.3,27-22.2c6.6-9.9,10.1-21.5,10.1-33.4
		c0-7.9-1.5-15.7-4.6-23c-3-7.3-7.5-13.9-13-19.5c-5.6-5.6-12.2-10-19.5-13C598,204.9,590.2,203.4,582.3,203.4L582.3,203.4z
		 M582.3,297c-6.6,0-13.1-2-18.6-5.6c-5.5-3.7-9.8-8.9-12.3-15c-2.5-6.1-3.2-12.8-1.9-19.3c1.3-6.5,4.5-12.4,9.2-17.1
		c4.7-4.7,10.6-7.9,17.1-9.2c6.5-1.3,13.2-0.6,19.3,1.9c6.1,2.5,11.3,6.8,15,12.3c3.7,5.5,5.6,12,5.6,18.6c0,8.9-3.5,17.4-9.8,23.6
		C599.7,293.5,591.2,297,582.3,297L582.3,297z"/>
	<path d="M545.6,199.9v-26.8H425.2v26.8h46.8v120.6h26.8V199.9H545.6z"/>
	<path d="M225.9,233.3v26.8h37c-8.5,22.4-24.8,36.9-43.7,36.9c-8.2,0-16.4-2.1-23.6-6c-7.3-3.9-13.4-9.5-18-16.4
		c-4.6-6.9-7.4-14.7-8.2-22.9c-0.8-8.2,0.4-16.5,3.6-24.1c3.2-7.6,8.2-14.3,14.5-19.5c6.4-5.2,13.9-8.8,22-10.4
		c8.1-1.6,16.4-1.2,24.3,1.2c7.9,2.4,15.1,6.7,20.9,12.5l19-19c-10.8-10.8-24.5-18.1-39.4-21.1c-14.9-3-30.4-1.5-44.4,4.4
		c-14.1,5.8-26.1,15.7-34.5,28.3c-8.5,12.6-13,27.5-13,42.7c0,10.1,1.9,20.1,5.8,29.4c3.9,9.3,9.5,17.8,16.7,24.9
		c7.1,7.2,15.6,12.9,24.9,16.8c9.3,3.9,19.3,5.9,29.4,6c26.2,0,49.8-16.9,63.7-43.7v40.4h26.8v-87.2H225.9z"/>
</g>
</svg>
